<svg xmlns="http://www.w3.org/2000/svg" xmlns:xlink="http://www.w3.org/1999/xlink" width="61" height="55" viewBox="0 0 61 55">
    <defs>
        <path id="a" d="M.013.014h60.576v54.973H.013z"/>
    </defs>
    <g fill="none" fill-rule="evenodd">
        <g>
            <mask id="b" fill="#fff">
                <use xlink:href="#a"/>
            </mask>
            <path fill="#fff" d="M59.258 5.707l-.11.143c-.457.586-1.065 1.151-1.535 1.57-1.114.98-2.327 1.88-3.525 2.756-1.088.801-1.311 1.032-2.382 1.848-.464.356-1.963 1.315-2.408 1.692-.358.307-1.069.977-1.382 1.329-1.321 1.468-2.192 2.83-2.285 2.954-.233.304-2.744 4.253-3.462 5.023-.797.855-1.607 1.706-2.407 2.557-.24.258-.48.51-.713.771l-.19-1.695c.055-.094.166-.23.218-.297.18-.236.369-.47.557-.704.532-.66 1.07-1.312 1.6-1.975.476-.6.956-1.206 1.411-1.827.178-.241 1.452-2.798 1.894-3.496.67-1.057 1.506-2.013 2.34-2.94.65-.729 1.483-1.381 2.266-1.957.963-.712 1.959-1.378 2.947-2.052 1.182-.812 2.056-1.712 3.144-2.646.55-.471 1.384-1.361 2.227-2.701.442-.704 1.158-2.334 1.256-2.365h.01c.911.873.992 1.818.846 3.025-.101.22-.153.763-.317.987zm-.874 5.958c-.228.408-.949.872-1.263 1.144-.98.847-2.427 1.38-3.492 2.114-.902.624-1.83 1.339-2.706 1.988-.738.551-1.497 1.13-2.108 1.81-1.347 1.517-3.663 4.909-3.789 5.069-.323.414-1.636 1.722-1.984 2.11-.974 1.089-1.816 1.695-2.855 2.722a66.66 66.66 0 0 1-2.529 2.395c-.411.37-.665.556-1.117.918l1.387-3.105s1.051-1.036 1.323-1.329c.78-.836 1.266-1.183 2.045-2.02.744-.801 5.967-8.103 6.68-8.93.264-.306 1.528-1.388 2.707-2.291 1.106-.854 1.478-.952 2.602-1.782 1.249-.924 2.515-1.867 3.673-2.9.45-.397.988-.9 1.44-1.436.165.753.906 1.856-.014 3.523zm-2.149 5.393c-.189.108-3.274 2.082-4.54 3.14-1.732 1.444-3.35 3.065-4.717 4.844-.25.325-2 2.155-2.192 2.337-1.44 1.382-1.96 1.85-3.511 3.105-1.263 1.025-2.518 2.406-3.77 3.443-.811.67-1.872 1.57-2.645 2.292l1.232-2.805c.314-.23.727-.534 1.023-.784.442-.377 1.044-.88 1.472-1.267 1.06-.956 1.68-1.42 2.703-2.408 1.2-1.16 2.393-2.34 3.551-3.54.418-.435.832-.872 1.232-1.322.188-.212 1.558-2.315 2.202-3.017.713-.778.842-1.204 1.806-2.173.654-.653 1.916-1.5 2.668-2.04.912-.653 1.023-.842 1.962-1.458.612-.399 1.827-.824 2.425-1.246.292 1.385.139 1.748-.9 2.899zm-2.094 4.953c-1.466 1.127-1.09.683-2.467 1.81-1.722 1.41-3.33 2.602-4.644 4.276-.049.06-4.21 4.371-5.312 5.348-1.378 1.215-2.548 2.146-3.914 3.377-1.492 1.353-5.059 5.033-5.667 5.752l1.76-4.183c1.005-1.001 2.394-2.291 3.49-3.198 1.248-1.036 6.042-5.215 7.49-6.604.212-.208 1.011-1.035 1.172-1.27.23-.33 1.816-1.796 2.065-2.12 1.348-1.751 1.724-2.013 3.428-3.436 1.2-1.001 3.413-2.616 3.413-2.616.038.408.504 1.852-.814 2.864zm-7.71 10.294c-.09.523-.006.44-.466.66-.132.062-1.408-.231-.855-1.183.19-.332.264-.527.945-1.078.057.051.46 1.098.376 1.601zm-.104 2.27c-.048.621-.175 1.344-.539 1.56-.366.223-.6.115-.866-.272-.206-.294.024-.844.23-1.193.208-.353.757-.859 1.084-1.09 0 0 .137.368.09.995zm-.386 3.411c-.188.63-.497 1.194-.905 1.34-.414.147-.699-.072-.741-.425-.051-.35.168-.746.45-1.06.287-.315.95-.722 1.325-.89 0 0 .055.408-.13 1.035zm-1.465 3.455c-.393.487-.63.652-1.04.582-.414-.07-.64-.552-.55-.903.084-.35.546-.587.909-.736.365-.147.813-.381 1.2-.345 0 0-.125.913-.519 1.402zm-1.506 2.71c-.417.743-1 .82-1.406.795-.472-.025-.665-.339-.566-.722.144-.554.705-.949 1.125-1.082.418-.132.826-.272 1.284-.324 0 0-.103.736-.437 1.333zm-1.993 2.56c-.522.4-.981.737-1.427.575-.446-.163-.511-.644-.355-.976.163-.329.637-.489 1.071-.558.429-.063.904-.179 1.332-.056 0 0-.097.617-.621 1.015zm-2.147 2.222c-.662.279-1.11.533-1.51.304-.4-.224-.695-.596-.163-1.079.282-.265.754-.32 1.214-.307.462.015 1.033.078 1.426.262 0 0-.302.547-.967.82zm-1.695-3.293c.22-.359 1.301-1.312 1.301-1.312.14.629.087.879.133 1.32.05.445-.122 1.097-.4 1.37-.522.513-1.024.252-1.252-.164-.213-.39-.147-.617.218-1.214zm3.323-1.974c.006.404-.07.883-.351 1.143-.282.259-.76.389-.877.001-.112-.376-.115-.865.24-1.444.223-.366.748-.698.748-.698.177.338.237.593.24.998zm1.206-1.064c-.27.251-.595.23-.793-.157-.173-.331-.333-.848.108-1.524.355-.541.908-.945.908-.945.132.404.174.806.223 1.214.049.408-.058 1.052-.446 1.412zm1.692-4.51c.22.595.358 1.147.072 1.503-.288.356-.786.421-.953.112-.174-.328-.227-.74-.162-1.151.065-.412.25-.921.493-1.27 0 0 .327.21.55.806zm.261-5.055c.01-.136.824-.857.862-.763.22.54.87 1.178.495 1.638-.595.737-1.398.057-1.357-.875zm.977 3.614c.15.53-.535.882-.967.572-.31-.22-.396-.376-.39-1.005.005-.631.328-1.246.328-1.246.292.241.919 1.289 1.03 1.679zm-8.916 9.268c-.588-.08-1.11-.366-1.475-.122s-1.896 1.86-2.195 2.264c-.142.191-.525.998-.595.83-.073-.164-.435-.188-.435-.188-.093.053-.626-.018-.69-.025-.228-.031-.357.052-.423.115-.035.032-.004-.02-.008-.027-1.165-2.167-3.512-2.868-3.947-2.91.058.06.052.077-.039.032-.058-.031-.037-.042.039-.032-.16-.177-.849-.701-1.601-1.116-1.055-.569-1.726-1.206-2.091-1.74-.368-.534-.382-.722-.862-.973-.474-.251-.526-.587-.662-1.424-.136-.827-.508-1.14-.508-1.14-.23-.514-.865-.8-.963-1.69-.129-1.137-.664-1.684-.852-2.503-.192-.84-.481-1.29-.156-1.426 0 0 3.891 3.683 5.07 4.655 2.12 1.748 6.723 7.497 7.088 7.87.156.164.11.14.246.098.136-.045 3.886-4.204 6.301-7.057 2.418-2.856 5.36-5.103 6-5.725.343-.333-.166 2.293-.473 3.099-.385 1.008-.33.313-.656 1.45-.36 1.26.031.96-.585 1.47-.617.511-.834 1.223-1.061 1.743-.337.775-.128.737-.88 1.242-.752.51-1.868 1.978-2.37 2.352-.501.376-.632.955-1.217.878zm.331 2.993c-.035.038-.585-.168-.647-.294-.136-.303-.189-.474.18-1.109.3-.516.76-.91.76-.91.104.373.135.75.17 1.127.047.45-.359 1.074-.463 1.186zm-2.828-1.109c.643-.621.824-.942 1.503-1.19.103-.035.344.363.292.691-.133.872-.898 1-1.89 1.556 0 0-.64.565-.93.313-.29-.251.378-.746 1.025-1.37zm2.786 2.706c-.657.663-3.633-.185-3.769-.205 0 .024.064-.457-.024-.555-.12.011-.177.014-.052-.02.021-.004.036 0 .052.02.191-.027.537-.087.558-.087.069 0 1.607-.628 1.826-.655.919-.112 1.795 1.12 1.41 1.502zm-6.617-1.447c-.116.401-.835-.38-1.76-.683-.922-.304-1.343.097-1.91-.423-.153-.143-.254-1.057.404-1.273.531-.174 2.4 1.38 2.943 1.734 0 0 .438.244.323.645zm-1.728 1.52c-.776.11-.86.385-1.465.214-.268-.077-.693-1.252-.265-1.685.432-.44 2.112.495 3.222.624 0 0-.05.036.027.366.074.328-.747.37-1.52.482zm-4.966-6.253s1.278.791 1.58 1.12c.498.547.616.773.5 1.203-.124.46-.552.806-1.18.376-.34-.237-.657-.869-.718-1.33-.056-.46-.167-.704-.182-1.37zm1.643 4.687c-.418.217-.877-.062-1.549-.37a2.206 2.206 0 0 1-.974-.885c.415-.177 1.01-.22 1.486-.22.473.007.96.08 1.246.36.532.523.209.896-.209 1.115zm-3.591-6.781s.638.332.925.74c.453.649.48 1.238.369 1.7-.115.48-.688.387-1.036.114-.351-.272-.466-.837-.487-1.329-.017-.485.038-.796.229-1.225zm-.41 4.183c-.654-.419-.873-1.057-.873-1.057.455-.123 1.002.003 1.496.076.49.07 1.05.242 1.283.586.237.345.25.838-.216 1.005-.465.164-1.04-.192-1.69-.61zm-2.429-2.742a5.06 5.06 0 0 1-.685-1.336c.498.09.957.262 1.427.43.47.166 1.133.596 1.378 1.15.166.377.01.67-.49.653-.43-.014-1.065-.14-1.63-.897zm-1.366-2.477c-.534-.49-.829-1.422-.829-1.422.446-.046.999.184 1.444.324.448.146 1.02.376 1.179.732.156.355-.03.848-.497.932-.466.084-.765-.077-1.297-.566zM15 37.925c-.334-.65-.352-1.096-.352-1.096.455.112 1.273.426 1.655.715.377.286.697.674.711 1.07.02.388-.255.68-.742.598-.49-.084-.94-.639-1.272-1.287zm-.69-3.255c-.163-.628-.09-1.03-.09-1.03.373.172 1.02.59 1.291.91.275.319.606.835.455 1.176-.201.45-.414.598-.83.44-.407-.153-.668-.865-.826-1.496zm.679-1.438c-.57-.299-.522-.258-.644-1.178-.097-.747.087-1.266.087-1.266.891.777 1.08.913 1.298 1.328.365.681-.053 1.48-.741 1.116zm1.53-.662c.042-.091.835.66.838.798.01.936-.823 1.594-1.397.83-.355-.477.32-1.094.56-1.628zm1.059 4.402c-.45.36-1.218.059-1.087-.502.095-.409.704-1.55 1.003-1.825 0 0 .39.607.439 1.256.044.648-.039.82-.355 1.071zm1.45 3.77c.167-.38.327-.766.564-1.122 0 0 .365.568.515 1.213.184.792-.112 1.252-.363 1.521-.295.314-.59.238-.751-.088-.236-.477-.133-1.14.035-1.523zm-.382-1.28c-.192.35-.697.304-.965-.072-.27-.377-.094-.995.175-1.664.268-.667.618-.921.618-.921.22.377.377.93.415 1.38.038.451-.042.912-.243 1.278zm-7.675-13.68c-4.473-3.538-5.98-3.859-5.72-6.858a33.767 33.767 0 0 1 3.754 2.634c1.677 1.35 3.249 2.867 4.582 4.54.243.304.477.615.703.932.16.22.272.37.483.566a342.903 342.903 0 0 1 3.598 3.373c1.335 1.263 3.287 2.821 4.515 3.802 1.048.84 3.034 2.602 4.001 3.53l1.962 4.37c-.532-.613-1.3-1.46-1.878-2.036-1.368-1.37-2.85-2.846-4.31-4.13-1.333-1.17-2.683-2.32-4.026-3.475-1.08-.925-3.604-3.278-3.646-3.335-.824-1.012-1.593-1.995-4.018-3.914zm-6.21-8.975c-.191-.116-.386-.238-.578-.353-1.071-1.217-1.238-1.79-.956-3.272.616.443 1.245.865 1.868 1.284.967.646 1.941 1.284 2.874 1.974.776.566 1.59 1.213 2.223 1.947.726.836 1.499 1.621 2.23 2.445.667.746 1.31 1.542 1.774 2.435.136.261.45.613.643.837.411.477.84.939 1.267 1.399a147.867 147.867 0 0 0 3.653 3.75c1.054 1.05 1.899 1.587 2.985 2.598a46.595 46.595 0 0 0 1.955 1.689l1.354 2.654c-.968-.921-1.722-1.51-2.37-2.062-1.285-1.095-2.598-2.162-3.893-3.24-1.593-1.329-3.187-2.683-4.665-4.144a3.305 3.305 0 0 1-.449-.565c-.24-.356-.49-.711-.748-1.057-1.412-1.887-4.982-5.39-9.167-8.32zm-2.057-5.714l-.134-.147c-.334-.383-.626-.795-.811-1.224-.17-.753-.067-1.298.086-2.051.46.544.832.84 1.284 1.245 1.173 1.04 2.45 1.998 3.71 2.93 1.136.837 2.285 1.663 3.401 2.522.477.366.95.743 1.402 1.134.362.31.717.638 1.034.991 1.335 1.506 4.056 6.044 4.327 6.352.72.84 1.471 1.66 2.223 2.47.783.85 1.58 1.695 2.37 2.542.274.294.552.59.823.89.084.094.168.189.25.286.023.028.054.062.078.097h.003l.003.175.074-.003 1.082 2.332c-.45-.362-.82-.582-1.232-.952a73.788 73.788 0 0 1-2.557-2.428 79.766 79.766 0 0 1-3.074-3.216c-.355-.394-.628-.645-.96-1.064-.126-.166-3.007-4.268-4.375-5.804-.615-.694-1.398-1.312-2.142-1.866-.887-.66-1.809-1.28-2.72-1.911-1.071-.74-2.17-1.501-3.156-2.358-.32-.273-.671-.596-.989-.942zm-.918-9.781c.578.801.829 1.716 1.294 2.504 1.003 1.709 2.677 3.192 7.79 6.995.793.595 4.16 4.32 4.975 5.62.45.714 1.785 2.417 1.896 2.593.16.259.693.9.87 1.148.46.632.595.866 1.084 1.48.534.68 1.08 1.349 1.62 2.02.19.24.381.48.563.722.055.072.167.21.222.303l-.191 1.737c-.237-.268-.48-.527-.721-.785-.813-.879-1.461-1.284-2.274-2.16-.725-.784-1.768-2.445-2.464-3.257-.257-.296-2.213-3.562-3.552-5.069-.32-.356-5.207-4.294-6.499-5.246C5.185 9.02 4.48 8.47 3.35 7.465c-.477-.423-2.077-2.124-2.346-2.836-.723-1.922.787-3.331.783-3.317zM33.03 24.11c-.219.157-.632-.752-.623-1.172.004-.425.067-.836.067-.836l7.146.017-1.21 1.468-2.547 1.037-1.458 4.384c-.055-2.648-.536-2.418-.63-3.348-.104-1.026.188-2.215-.745-1.55zm-4.302 2.11s-.999-1.063-.588-.633c.188.194-.644-.954-.675-.68-.035.34-.077 1.593-.188 2.224-.201 1.144-.563 1.316-.563 1.316l-1.44-3.705-2.746-1.312-1.12-1.349 7.524-.052s-.374.596-.625 1.255c-.251.66.42 2.937.42 2.937zm4.553 5.178l-2.71 6.955-3.482-8.402c.776-2.44.627-.583.769-3.12.083-1.495-.299-.826 1.346.88.647.676.014-2.136-.153-2.983-.164-.848.33-2.177.57-2.354.247-.178.657-.932.544-1.42-.112-.484-.032-1.688-.032-1.688s.71.712 1.294 1.632c.588.911.08 1.231.24 2.198.167.97.518 1.356.636 1.6.116.242-.438.664-.511 1.445-.073.785-.907 2.316-.484 2.204.422-.112 1.155-1.085 1.235-2.05.074-.964.818-1.793.818-1.793s-.376.907.143 2.184c.52 1.276.17 2.176-.09 3.257-.258 1.084-.133 1.455-.133 1.455zm-13.46-15.721l22.022-.179.183 3.496-1.805 2.295-7.702.048-.418-.753c.188.185.735.293 1.43.293.449 0 .822-.066 1.12-.198.294-.13.523-.321.69-.576.166-.251.25-.524.25-.826 0-.253-.063-.483-.187-.691a1.435 1.435 0 0 0-.595-.514c-.272-.139-.72-.278-1.348-.414-.256-.053-.416-.109-.483-.171-.069-.06-.104-.126-.104-.2 0-.103.042-.188.128-.26.084-.074.209-.105.377-.105.201 0 .361.045.476.142.118.094.192.248.226.458l1.354-.078c-.056-.484-.241-.837-.554-1.06-.312-.223-.765-.331-1.36-.331-.486 0-.866.062-1.144.182a1.38 1.38 0 0 0-.626.502c-.137.215-.209.44-.209.68 0 .363.136.665.407.9.27.237.72.425 1.35.565.383.087.632.175.736.272a.429.429 0 0 1 .158.324.428.428 0 0 1-.167.335c-.112.098-.272.144-.474.144-.277 0-.486-.094-.633-.283-.093-.115-.153-.283-.18-.506l-1.371.087c.028.325.274.701.282.841l-.282-.31c-.18-.234-.84-.883-1.083-1.116-.243-.231-.653-.517-.715-.398-.06.121 0 1.147 0 1.932 0 .785-.21 1.176-.21 1.176l-8.693.09-.845-.966v-4.827zm.831-1.355c.328-.184.345-.184.676-.09.33.09.316.816.316.816l-1.58.042s.258-.586.588-.768zm20.471-.076c.24-.09.48.694.48.694L40.46 15c.24-.454.422-.663.662-.754zm18.541-7.053c2.523-5.058-.89-6.582-1.112-7.18 0 0-.282.385-1.124 2.136-.842 1.75-2.769 3.59-3.882 4.675-1.11 1.087-2.286 1.84-4.631 3.56s-2.198 1.752-3.851 3.712c-1.655 1.957-2.198 4.102-2.198 4.102l-.24-3.108s-.812-1.448-1.17-1.717c-.364-.272-.995-.453-.995-.453.453 1.287-.496 1.364-.963 1.96l-16.908.21s-.028-.331-.087-.635c-.062-.3-.424-1.082-1.356-1.626-.93-.543-.383.158-.495.496-.16.478-.81.771-1.082.997-.271.224-.376.768-.376.768l-.03 4.706c-.153.06-1.145-1.748-1.747-2.655-.601-.903-2.407-3.74-4.303-5.702-1.893-1.958-2.613-2.14-5.294-4.04-2.677-1.901-2.721-2.345-3.476-3.192C3.593 3.363 2.382.203 2.382.203S1.14.038.388 1.789C-.362 3.537.207 4.58.207 4.762c0 .178.647 1.193.495 3.244-.21 2.878 1.62 4 1.576 4.744-.127 2.12.566 3.658.813 4.014.466.674 1.207 1.152 1.263 1.357.09.329-.035 3.325.845 4.222 1.733 1.768 3.476 2.985 4.93 4.102 2.439 1.872 2.957 2.34 3.316 2.912.364.573.24 1.57.212 2.174-.032.603-.22 2.396.111 3.33.334.938.167.761.229 1.065.06.303.011 1.23.407 2.012.387.785.335.837.516 1.65.183.817 1.332 2.568 1.604 2.99.27.422.608 1.385 1.148 1.99.543.604 1.011 1.382 1.398 1.833.393.45 1.252.71 1.763 1.402.511.694 1.482 1.298 2.233 1.629.753.331 1.901.272 1.932.694.032.422.345 1.403 1.128 1.464.783.06 2.421-.574 2.421-.574s0 1.6-1.082 2.532c-1.082.934-.88.725-1.422.995-.69.347.305.298 1.394.455.63.089 2.133-3.47 2.195-3.801.045-.251.243-.097.601-.12.338-.023.744-.086.89-.163-.027-.046-.05-.094-.079-.139.16.045.163.094.08.14 1.336 2.461 1.858 4.195 2.568 3.87.72-.33 1.384-.39 1.384-.39s-.028-.03-1.081-.726c-1.054-.694-2.016-2.412-2.016-2.412s1.782-.115 2.773.188c.995.303 1.57-.444 2.144-1.016.573-.575.919-.537 1.85-.837.933-.303 1.354-1.203 1.834-1.772.48-.572.814-.785 1.234-1.085 1.06-.763 2.148-3.407 2.307-3.83-.003-.01 0-.021.018-.056.006-.017 0 .004-.018.056.027.052.706-.836.989-1.527 1.409-3.46 1.203-2.205 1.871-6.604.06-.394-.083-1.496-.083-2.61 0-1.116-.421-1.81-.54-2.053-.121-.241 1.106-.921 2.76-2.7a25.813 25.813 0 0 1 4.935-4.162c1.622-1.057 2.004-2.392 2.004-2.752v-1.723s.387-.572 1.35-1.266c.964-.692 1.235-2.17 1.176-2.351-.062-.182-.181-1.783 0-1.899 2.56-1.715.585-5.068 1.081-6.065z" mask="url(#b)"/>
        </g>
        <path fill="#fff" d="M36 16h1.193l.83 2.877L38.84 16H40l-1.37 4h-1.237L36 16M25 16h3v.86h-1.784v.697h1.52v.808h-1.52V20H25v-4M22 20h1v-4h-1z"/>
    </g>
</svg>
