<svg xmlns="http://www.w3.org/2000/svg" width="40" height="40" viewBox="0 0 40 40">
    <path fill="#FFF" fill-rule="evenodd" d="M35.531 0H4.47c-1.244 0-2.3.441-3.167 1.323C.434 2.205 0 3.253 0 4.47v31.106c0 1.215.434 2.256 1.302 3.123C2.169 39.566 3.225 40 4.469 40H35.53c1.244 0 2.3-.434 3.167-1.302.868-.867 1.302-1.908 1.302-3.123V4.469c0-1.215-.434-2.264-1.302-3.146C37.831.441 36.775 0 35.531 0zM19.957 32.278c1.706 0 3.304-.326 4.794-.976a12.596 12.596 0 0 0 3.904-2.647 12.596 12.596 0 0 0 2.647-3.904c.65-1.49.976-3.088.976-4.794 0-.376-.022-.745-.065-1.107a8.604 8.604 0 0 0-.196-1.063h3.514v16.01c0 .433-.144.802-.433 1.105-.29.304-.651.456-1.085.456H5.987c-.434 0-.795-.152-1.085-.456a1.545 1.545 0 0 1-.433-1.106V17.787h3.427a23.49 23.49 0 0 0-.152 1.063 9.28 9.28 0 0 0-.065 1.107c0 1.706.318 3.304.954 4.794a12.292 12.292 0 0 0 2.625 3.904 12.595 12.595 0 0 0 3.905 2.647c1.49.65 3.087.976 4.794.976zm-7.68-12.321c0-2.112.753-3.92 2.257-5.423 1.504-1.504 3.311-2.256 5.423-2.256 2.14 0 3.955.752 5.444 2.256 1.49 1.504 2.235 3.311 2.235 5.423 0 2.14-.745 3.962-2.235 5.466-1.49 1.504-3.304 2.256-5.444 2.256-2.112 0-3.92-.752-5.423-2.256-1.504-1.504-2.256-3.326-2.256-5.466zm21.736-8.85h-3.6c-.406 0-.76-.145-1.064-.435a1.436 1.436 0 0 1-.455-1.084V5.987c0-.405.152-.76.455-1.063a1.457 1.457 0 0 1 1.063-.455h3.601c.434 0 .795.151 1.085.455.289.304.433.658.433 1.063v3.6c0 .435-.144.796-.433 1.085-.29.29-.651.434-1.085.434z"/>
</svg>
